<svg xmlns="http://www.w3.org/2000/svg" width="100" height="120" viewBox="0 0 100 120">
  <path d="M50,10 C25,10 15,30 25,50 C35,70 42,90 50,90 C58,90 65,70 75,50 C85,30 75,10 50,10 Z" fill="white"/>
  <path d="M40,25 C30,30 25,40 30,50 C35,60 45,65 50,60 C55,65 65,60 70,50 C75,40 70,30 60,25" stroke="white" stroke-width="2" fill="none"/>
  <path d="M45,35 C40,40 40,45 45,50 C50,55 55,50 55,45 C55,40 50,35 45,35 Z" fill="white"/>
  <path d="M30,40 C25,45 25,55 30,60 C35,65 40,60 40,55 C40,50 35,45 30,40 Z" fill="white"/>
  <path d="M60,35 C55,40 55,50 60,55 C65,60 70,55 70,50 C70,45 65,40 60,35 Z" fill="white"/>
  <path d="M45,65 C40,70 40,75 45,80 C50,85 55,80 55,75 C55,70 50,65 45,65 Z" fill="white"/>
  <path d="M50,10 C50,5 55,0 60,0 C70,0 80,10 85,20 C90,30 90,40 85,50 C80,60 75,70 70,80 C65,90 60,100 50,100" stroke="white" stroke-width="2" fill="none"/>
  <path d="M50,10 C50,5 45,0 40,0 C30,0 20,10 15,20 C10,30 10,40 15,50 C20,60 25,70 30,80 C35,90 40,100 50,100" stroke="white" stroke-width="2" fill="none"/>
</svg> 