<svg xmlns="http://www.w3.org/2000/svg" viewBox="0 0 200 240">
  <!-- Woman silhouette with brain -->
  <path d="M100,20 C60,20 30,50 30,100 C30,140 60,180 100,180 C140,180 170,140 170,100 C170,50 140,20 100,20 Z" fill="black"/>
  
  <!-- Face outline -->
  <path d="M120,70 C130,80 135,100 130,120 C125,140 115,160 100,170 C85,160 75,140 70,120 C65,100 70,80 80,70" fill="none" stroke="white" stroke-width="2"/>
  
  <!-- Hair -->
  <path d="M70,70 C60,80 55,100 55,110 C55,120 60,130 65,135 C55,140 45,150 40,160 C35,170 30,180 35,190 C40,200 50,210 60,215 C70,220 80,220 90,215" fill="black"/>
  
  <!-- Brain inside -->
  <path d="M100,60 C90,60 85,70 85,80 C85,90 90,95 95,95 C100,95 105,90 105,85 C105,80 100,75 100,70" fill="white" stroke="white" stroke-width="1"/>
  <path d="M110,60 C120,60 125,70 125,80 C125,90 120,95 115,95 C110,95 105,90 105,85 C105,80 110,75 110,70" fill="white" stroke="white" stroke-width="1"/>
  <path d="M95,80 C85,80 80,90 80,100 C80,110 85,115 90,115 C95,115 100,110 100,105 C100,100 95,95 95,90" fill="white" stroke="white" stroke-width="1"/>
  <path d="M115,80 C125,80 130,90 130,100 C130,110 125,115 120,115 C115,115 110,110 110,105 C110,100 115,95 115,90" fill="white" stroke="white" stroke-width="1"/>
  <path d="M90,110 C80,110 75,120 75,130 C75,140 80,145 85,145 C90,145 95,140 95,135 C95,130 90,125 90,120" fill="white" stroke="white" stroke-width="1"/>
  <path d="M120,110 C130,110 135,120 135,130 C135,140 130,145 125,145 C120,145 115,140 115,135 C115,130 120,125 120,120" fill="white" stroke="white" stroke-width="1"/>
  
  <!-- Neck -->
  <path d="M90,170 C95,190 105,190 110,170" fill="black"/>
</svg> 