<svg xmlns="http://www.w3.org/2000/svg" viewBox="0 0 200 200">
  <!-- Woman silhouette with brain -->
  <path d="M100,10 C60,10 30,50 30,100 C30,150 60,180 100,180 C140,180 170,150 170,100 C170,50 140,10 100,10 Z" fill="black"/>
  
  <!-- Brain inside -->
  <path d="M85,50 C75,60 75,75 85,85 C95,95 100,90 105,80 C110,70 105,60 95,50 C105,40 115,40 125,50 C135,60 130,70 125,85 C120,95 110,100 100,100 C90,100 80,95 75,85 C70,75 75,60 85,50 Z" fill="white"/>
  
  <!-- Brain details -->
  <path d="M90,55 C85,60 85,70 90,75 C95,80 100,75 100,70 C100,65 95,60 90,55 Z" fill="black"/>
  <path d="M110,55 C105,60 105,70 110,75 C115,80 120,75 120,70 C120,65 115,60 110,55 Z" fill="black"/>
  
  <!-- Neck -->
  <path d="M90,180 C90,190 110,190 110,180" fill="black"/>
  
  <!-- Hair -->
  <path d="M50,80 C40,100 35,140 50,160 C65,180 90,170 100,160" fill="black"/>
</svg> 